PathFileType	4	(X/Y/Z)	Patient4_TMGait_0pt4_02_right_05.trc.trc
DataRate	CameraRate	NumFrames	NumMarkers	Units	OrigDataRate	OrigDataStartFrame	OrigNumFrames
71.428571428571	71.428571428571	4	33	mm	71.428571428571	36	       141
Frame#	Time	Sacral			L.Shoulder			Chest			R.Shoulder			Neck			R.ASIS			L.ASIS			R.Thigh.Superior			R.Thigh.Lateral			R.Thigh.Inferior			R.Patella			L.Thigh.Superior			L.Thigh.Lateral			L.Thigh.Inferior			L.Patella			L.Shank.Superior			L.Shank.Lateral			L.Shank.Inferior			R.Shank.Superior			R.Shank.Lateral			R.Shank.Inferior			R.Heel			R.Midfoot.Superior			R.Midfoot.Lateral			R.Toe			L.Heel			L.Midfoot.Lateral			L.Midfoot.Superior			L.Toe			L.Elbow			L.Wrist			R.Elbow			R.Wrist			
		X1	Y1	Z1	X2	Y2	Z2	X3	Y3	Z3	X4	Y4	Z4	X5	Y5	Z5	X6	Y6	Z6	X7	Y7	Z7	X8	Y8	Z8	X9	Y9	Z9	X10	Y10	Z10	X11	Y11	Z11	X12	Y12	Z12	X13	Y13	Z13	X14	Y14	Z14	X15	Y15	Z15	X16	Y16	Z16	X17	Y17	Z17	X18	Y18	Z18	X19	Y19	Z19	X20	Y20	Z20	X21	Y21	Z21	X22	Y22	Z22	X23	Y23	Z23	X24	Y24	Z24	X25	Y25	Z25	X26	Y26	Z26	X27	Y27	Z27	X28	Y28	Z28	X29	Y29	Z29	X30	Y30	Z30	X31	Y31	Z31	X32	Y32	Z32	X33	Y33	Z33	

36	6.470000000000	862.015447776035	997.521990980715	484.449176367437	1054.052638942961	1425.208961737349	300.131551137725	1138.456483642562	1364.393472101151	474.280167688078	1033.624648978368	1440.725377538393	634.961665190415	1016.982745920114	1491.290398987865	452.958501914132	1087.878029882956	941.634555198617	614.881020320174	1085.477449158868	960.843246179334	339.003121841948	1151.029227464686	748.986858153877	584.968773297845	1081.087467971303	633.228040906690	646.217752491206	1166.047882886028	587.566909589830	568.225939053524	1177.016251347468	497.761120636053	577.188302692756	1109.119972880162	736.028895483419	357.115631394699	1008.840073790553	630.062936271701	288.171407669277	1087.630286748504	539.581947889391	342.715915795089	1077.269414663155	459.523210008991	339.416521464771	1018.430342267726	400.582304683887	333.252598769207	886.682387393379	334.877167892685	285.457376250651	895.044773213446	205.775649529501	342.812232468870	1148.484344579815	407.698926929639	585.369074648873	1079.215389742155	304.682238938578	651.562468816868	1120.906761294590	208.327446337569	590.174740784901	989.856354423072	43.249240934846	568.231233419131	1161.091175949664	98.293982333579	599.318111607104	1075.025888667046	37.562005680382	640.740012173414	1282.781121521357	45.968419047054	623.402129271020	723.238585263906	97.194961156210	384.518185645987	789.155284049122	67.790021312481	304.187448102564	886.296818297243	106.823836427412	323.902066122676	992.458844419571	35.473876668693	296.678196689890	1072.002915993444	1074.776095745990	179.800556685836	1225.039748590113	859.804415194615	193.015269573105	940.166531571678	1115.819718296976	768.786679281366	1058.388114176288	883.595131382832	786.859969915023	
37	6.484000000000	862.514266501737	997.566797881791	489.199234630759	1052.515449291298	1425.702844034264	303.898048677058	1138.619881049532	1364.764226663450	477.231876774674	1035.185441454370	1440.872634846967	638.889925722616	1016.788264437190	1491.548969047645	456.996561693421	1089.365924709023	941.912350585563	618.031301311352	1084.653219742124	961.024942520847	342.383364979104	1151.014892049477	748.239633697906	588.535349268141	1079.641919411079	632.892240605623	648.949420175332	1164.409491421047	586.825819721526	571.054599603934	1174.455957457285	496.982312608704	579.223878708360	1114.297011368896	737.958714665001	360.206605703250	1018.566625932842	629.640334267183	290.045205429379	1100.307519120040	540.845410688860	344.413275786288	1090.970125831383	459.370396909333	340.065716425752	1029.705197565807	400.677625116366	334.069898013213	895.606008764466	340.167757930550	286.064922151205	899.207109198331	210.839822930076	342.813492492807	1145.421781039343	407.009476387464	586.994733942504	1075.719973456515	304.154839436714	652.843748216849	1116.456285044323	207.822775795126	590.804618604866	984.248401637683	43.255599326362	568.362552681918	1155.583502245491	98.067785422889	599.569890434223	1069.410300570268	37.510191818676	640.929761144016	1277.265474749177	45.502737469318	623.640159947525	722.979026206688	111.071486078903	383.893763652452	787.220841254686	77.599103672756	303.819875814800	886.309875191022	111.053647831651	323.414004098637	987.188928228842	34.645618712389	296.894599415324	1065.840644189519	1075.282367007962	182.981720362352	1217.036179908654	858.828473769465	193.055545856286	947.138391986595	1115.630522406676	775.756717197624	1076.424438702983	889.539016061219	791.655353044988	
38	6.498000000000	862.784085053904	997.541318983810	493.875410783591	1050.670466767913	1426.092357632520	307.537284103544	1138.658071123600	1364.988549924343	479.928746424613	1036.870146961943	1440.886203693583	642.705699748325	1016.521883587852	1491.714008752491	460.949544754417	1090.680321551719	942.098845483239	620.890742866842	1083.469705797633	960.989795567300	345.494843253138	1150.694365660962	747.399376241767	591.818239309180	1078.068618140615	632.542379183532	651.600959578687	1162.496062966726	586.061272420865	573.671987425306	1171.650004769105	496.196277750234	581.179080832811	1119.525843933679	740.193529986928	363.056090230500	1028.639009741632	629.520554603631	291.723911274241	1113.335628183530	542.659052550302	345.969878080877	1105.204258660529	459.868997943593	340.803903110051	1041.723043673379	401.215649825396	334.907530789920	905.490577577684	345.884469690785	286.626521188832	904.287374400418	216.528668266702	342.959766160969	1142.143289934731	406.307058055022	588.581070752105	1072.042126743107	303.595745146369	654.098515365713	1111.869379341803	207.305756963845	591.420522201852	978.555422829497	43.238394532658	568.495680475960	1149.999595685888	97.818966518160	599.788811245802	1063.724218450024	37.442550557952	641.115417205935	1271.674040831967	45.029531317259	623.839286747286	723.862229604046	125.955456912575	383.413689285193	786.291556833222	88.562481503081	303.542829562277	887.196176787949	116.098898034055	323.164219208198	982.502275989025	33.893240569237	297.156650881243	1059.260078128948	1075.717912281357	186.065977776389	1208.615744769217	857.862865996232	192.898970356904	954.548990681692	1115.451922840329	782.792834743566	1094.741505898869	896.142720956363	796.211457688945	
39	6.512000000000	862.829308621032	997.467860796503	498.424743257887	1048.546423575822	1426.405237429056	311.023816421382	1138.568355971601	1365.083255167254	482.349683868745	1038.662713763674	1440.779214558144	646.372960413450	1016.192640066619	1491.811143239754	464.788118141935	1091.799313464362	942.217504641197	623.450254118015	1082.005515680768	960.789855242461	348.306785179671	1150.098016822583	746.533086712837	594.725106874506	1076.455222890459	632.210824196642	654.138989017754	1160.362962799318	585.305874823796	576.014661801057	1168.642655129494	495.421302135874	583.016785216993	1124.639175510161	742.762120676225	365.644016141283	1038.751587285769	629.809486170365	293.215116151419	1126.355920827839	545.099031184548	347.355396194823	1119.633258505585	461.109650124273	341.578900639486	1054.197215375419	402.279600167983	335.726512593372	916.060346658307	351.923510289280	287.180043157199	910.224957145677	222.685045354681	343.256863286576	1138.698400902682	405.613100518474	590.096915317328	1068.234755565203	303.031248185849	655.317918406848	1107.188125652685	206.796471559803	592.013804631727	972.820647876418	43.208835335036	568.634987134276	1144.373851549834	97.575785510909	599.986663529614	1058.006276281187	37.371177427543	641.300231401105	1266.040229112821	44.584415928340	624.010746127037	725.985489010174	141.231260871406	383.143993654652	786.556766833013	100.232628288743	303.401936814325	889.073097978927	121.820382982912	323.162153670550	978.787704213879	33.314652018005	297.430324908999	1052.305995204297	1076.098267697240	189.075642578086	1199.765592172654	856.887163394069	192.572569992588	962.459549349830	1115.266600255973	789.799334315743	1113.279163680298	903.356142720346	800.445302684279	
